<svg xmlns="http://www.w3.org/2000/svg" version="1.1" xmlns:xlink="http://www.w3.org/1999/xlink" xmlns:svgjs="http://svgjs.dev/svgjs" width="2000" height="2250" viewBox="0 0 2000 2250"><g transform="matrix(1,0,0,1,0.00014687500004129106,0)"><svg viewBox="0 0 320 360" data-background-color="#ffffff" preserveAspectRatio="xMidYMid meet" height="2250" width="2000" xmlns="http://www.w3.org/2000/svg" xmlns:xlink="http://www.w3.org/1999/xlink"><g id="tight-bounds" transform="matrix(1,0,0,1,0.000023499999997511622,0)"><svg viewBox="0 0 320 360" height="360" width="320"><g><svg></svg></g><g><svg viewBox="0 0 320 360" height="360" width="320"><g><path transform="translate(-74.99272,-51.79039) scale(4.65793,4.65793)" d="M20.6 59.9l0.8 1-0.4-1.3c-0.1-0.6-0.8 0.1-0.4 0.3M21.5 59.3c0.3 0.5 0.6 1 0.6 1.5 0 0.7 0.6 1 1.1 1.2-0.7-0.8-1.1-3-1.7-2.7M59.9 16.9c1.7 0 3.3-0.2 5.1 0.2 4.4 1.1 8.1 3.3 10.6 6.4l7 11.2c0.3 2.8 0.9 5.9 0.8 9.3 0.7 0 0.6-1 1.4-1.2-0.8 2-1.2 4.5-1.4 7.4-0.5-1.6 0-4 0.1-5.3-0.7 1.1-1.1 0.3-1.1-0.2 0.1-0.8-0.3-0.7-0.6-1-1.1-1-1.8-2.1-2.6-3.8 0.5-1.3 0.6-3.2-1-4.2-0.5-0.3-1.1-0.8-1.4-1.6-0.4-1.1-1.1-2.4-0.9-4.1 0.1-0.5-1.5 1.1-2.4 0.4-3.9-2.7-7.8-5.8-12.5-8.4-2.5 0-4.3-0.9-5.2-2-0.8-1-0.2-2.3 1-2.4 0.7 0 1.5-0.2 2.1 0.2 0.1-0.4 0.5-0.9 1-0.9M50 14.6l0.2 0.1c1 0.2 1.5 1.6 2.6 1.1 0 0.7 0.1 1.4-0.1 1.9-0.3 0.8-1.2 0.8-1.9 0.8-6.7-0.4-10.6 2.4-14.7 4.8-1.1 0.7-2.3 1.2-3.2 2.1-4.3 4-9 7.7-10.1 15.1l-0.9 8.2c-0.1 0.9-1.1 1.8-0.9 2.9l0.7 4.9c-0.7-0.7-1.1 0.2-0.9 0.6 0.1 0.3 0.5 1.3 1.1 0.4 0.8 1.5 1.6 4.4 2.7 5.7 3.4 4 7.8 7.6 11.4 11.2 0.9-0.2 1.6-0.2 1.8-0.8 0.3 0.6-0.3 1.2-0.8 1.3 1.6 1 3.4 1.9 5.8 2.1 3.1 0.2 6 0.7 8.7 1.4 1.4-0.4 2.8-0.6 4.3-0.7 0.5 0 0.8-0.8 1.4-1l0.1-1c0.6 0.9 0.5-0.3 0.1-0.9 0.7 0.6 0.9 1.1 1.2 1.5 0-0.3 0.8-1.4 0.8-0.1l0.2-1.3c0.3-0.2 0.4 1.1 0.7 0.2 0.3-0.9 0.9-0.2 1.5-0.5-0.2 0.4-0.1 1.2 0.6 0.7l0.8-0.7c0.5 1.2 1.3 0.7 1.7 0.5 4.4-2.8 8.8-6.1 13-9.4l-0.1 1.3 0.5-1.6c0.5 0.5 0.9 0.1 1.1-0.2 0.6-1 1.4-2 2.7-2.9-1.6 4.3-3.5 7.7-5.9 10.5l-1 1.2c0 0.7-0.2 1.6-1 1.7-0.4 0.1-1.2-0.2-1.8 0.4-0.3 0.4 0.7 1.2-0.1 0.6-0.7-0.5-1.4 0-2.2 0.2-0.6 0.2 0.4 0.8 0.6 1.2 0.2 0.4 0.4 0.8 0.3 1.3l-1.1-1.2c-1.3 0.7-2.1 2-3.2 3-0.5 0.4-0.3 1.1-0.3 1.7-0.7 0-1.5-0.2-1.9 0.2-0.3 0.4-0.2 1-0.2 1.6-1-0.1-1.1-1.6-2-1.3-0.9 0.2-1.9 0.3-2.7 0.8 0.6 1.2-1 0.5-0.8 0.7-1.5-0.9-2.8-1.6-4.4-1-3.4-1.1-7.6-0.6-10.7-0.2 0-0.5 0.1-1-0.1-1.1-0.2 0.5-0.8 0.3-0.7 0.3-1.9-1.3-3.8-2.1-5.8-3.2-1.8 0.2-3.5-0.7-4-1.2-1.4-1.3-3-0.6-4.3-0.9-2.8-0.7-3.8-3.6-4.1-5.6-0.2-1-1-1.4-1.3-1.3-1.3-4.2-3.3-8-4.9-11.9-0.4-1-0.3-2-0.3-3.1 0.5 0.2 1 0.1 0.9-0.6-0.5-3.3-1.7-5.8-3-8.2 0.7-3.4 0.8-7.4 2.4-10.4 1.4-2.7 4-4.1 5.8-6.4 0.6-0.8 0.6-1.9 1.2-2.6 2-2 4-4.1 6.2-5.9 1-0.8 2.2 0 3.7-0.3 0.5-1.8 2.5-3.4 4.4-2.9 0.8 0.2 2.4-1.9 2.9-2.1 0.8-0.3 0.4 0.8 0.4 1.5 1.9-1.5 4.5-2.3 6.9-3.2" fill="#000000" fill-rule="nonzero" stroke="none" stroke-width="1" stroke-linecap="butt" stroke-linejoin="miter" stroke-miterlimit="10" stroke-dasharray="" stroke-dashoffset="0" font-family="none" font-weight="none" font-size="none" text-anchor="none" style="mix-blend-mode: normal" data-fill-palette-color="tertiary"></path></g><g transform="matrix(1,0,0,1,96.1076827622405,90)"><svg viewBox="0 0 127.78463447551898 180" height="180" width="127.78463447551898"><g><svg viewBox="0 0 178.88760000000002 251.9846625704348" height="180" width="127.78463447551898"><g><svg viewBox="0 0 178.88760000000002 251.9846625704348" height="251.9846625704348" width="178.88760000000002"><g id="textblocktransform"><svg viewBox="0 0 178.88760000000002 251.9846625704348" height="251.9846625704348" width="178.88760000000002" id="textblock"><g><svg viewBox="0 0 178.88760000000002 178.88760000000002" height="178.88760000000002" width="178.88760000000002"><g transform="matrix(1,0,0,1,64.84800985524149,57.82064124245334)"><svg viewBox="0 0 49.19158028951704 63.24631751509334" height="63.24631751509334" width="49.19158028951704"><g id="icon-0"><svg xmlns="http://www.w3.org/2000/svg" xmlns:xlink="http://www.w3.org/1999/xlink" version="1.1" x="0" y="0" viewBox="26 19 49 63" enable-background="new 0 0 100 100" xml:space="preserve" height="63.24631751509334" width="49.19158028951704" class="icon-xg-0" data-fill-palette-color="accent" id="xg-0"><g fill="#a6bb05" data-fill-palette-color="accent"><path d="M73.772 53.117l-0.932-0.888c-0.619-0.619-1.033-1.428-1.135-2.297l-2.303-19.487C69.171 28.484 67.499 27 65.526 27h-0.858c-0.893 0-1.671-0.601-1.888-1.467l-0.84-3.473C61.507 20.327 59.95 19 58.164 19H42.836c-1.786 0-3.342 1.33-3.776 3.063l-0.84 3.412C38.003 26.342 37.225 27 36.332 27h-0.858c-1.973 0-3.635 1.484-3.865 3.444l-2.292 19.484c-0.102 0.869-0.494 1.68-1.113 2.299l-0.976 0.889C26.498 53.846 26 54.837 26 55.869V71.77c0 1.075 1 1.946 2 1.946v5.838C28 80.629 28.993 82 30.068 82h3.892C35.034 82 36 80.629 36 79.554V74h29v5.554C65 80.629 65.966 82 67.041 82h3.892C72.007 82 73 80.629 73 79.554v-5.838c1 0 2-0.871 2-1.946V55.869C75 54.837 74.502 53.847 73.772 53.117zM35.73 34.678C35.83 33.683 36.667 33 37.666 33h25.667c1 0 1.837 0.683 1.936 1.678l1.557 15.53c0.055 0.547-0.125 0.918-0.493 1.325C65.964 51.941 65.44 52 64.89 52H36.11c-0.55 0-1.074-0.077-1.443-0.485-0.369-0.408-0.548-0.838-0.493-1.385L35.73 34.678zM37.851 63.986c-2.149 0-3.892-1.742-3.892-3.892 0-2.15 1.742-3.892 3.892-3.892 2.149 0 3.892 1.742 3.892 3.892C41.743 62.244 40.001 63.986 37.851 63.986zM63.149 63.986c-2.149 0-3.892-1.742-3.892-3.892 0-2.15 1.742-3.892 3.892-3.892 2.149 0 3.892 1.742 3.892 3.892C67.041 62.244 65.298 63.986 63.149 63.986z" fill="#000000" data-fill-palette-color="accent"></path></g></svg></g></svg></g><g id="text-0"><path d="M21.199 62.746v0c-0.291 0.823-0.702 1.483-1.234 1.978-0.531 0.496-1.175 0.835-1.93 1.017v0l1.547 0.793-0.698 1.975-16.395-5.795-1.007 1.792-1.482-0.524 1.487-4.207 7.077 2.501c-0.425-0.592-0.679-1.234-0.762-1.926-0.089-0.694 0.005-1.434 0.282-2.219v0c0.369-1.045 0.966-1.835 1.789-2.37 0.823-0.535 1.814-0.819 2.972-0.851 1.158-0.032 2.415 0.191 3.77 0.67v0l0.247 0.087c1.209 0.428 2.201 0.999 2.974 1.714 0.773 0.715 1.283 1.529 1.53 2.443 0.253 0.916 0.198 1.89-0.167 2.922zM19.123 62.664v0c0.383-1.083 0.284-2.022-0.297-2.819-0.587-0.799-1.513-1.422-2.78-1.87v0l-0.247-0.087c-0.975-0.345-1.871-0.53-2.689-0.555-0.817-0.025-1.519 0.126-2.104 0.453-0.579 0.329-0.999 0.861-1.259 1.596v0c-0.248 0.703-0.288 1.359-0.118 1.967 0.17 0.608 0.492 1.157 0.967 1.645v0l5.576 1.971c0.683-0.079 1.283-0.305 1.8-0.678 0.517-0.373 0.9-0.914 1.151-1.623z" fill="#000000" data-fill-palette-color="primary"></path><path d="M90.279 14.743v0c-1.451-0.001-2.586-0.468-3.404-1.402-0.819-0.934-1.228-2.388-1.227-4.363v0l0.003-5.975-1.531-0.343 0.001-1.571 1.531 0 2.438 0.002-0.004 7.918c-0.001 1.431 0.21 2.411 0.633 2.942 0.423 0.538 1.078 0.807 1.964 0.807v0c0.866 0 1.582-0.174 2.147-0.523 0.571-0.349 1.001-0.846 1.29-1.49v0l0.004-7.737-1.803-0.344 0.001-1.571 1.803 0.001 2.438 0.001-0.006 11.485 1.531 0.343-0.001 1.562-3.727-0.002-0.161-1.985c-0.417 0.718-0.958 1.272-1.622 1.662-0.665 0.389-1.431 0.584-2.298 0.583z" fill="#000000" data-fill-palette-color="primary"></path><path d="M160.335 64.398v0c-0.308-0.846-0.512-1.669-0.611-2.469-0.096-0.794-0.117-1.673-0.06-2.637v0l2.984-1.109 0.631 1.732-1.652 1.085c-0.018 0.5 0.007 0.97 0.074 1.409 0.065 0.434 0.184 0.887 0.356 1.361v0c0.338 0.928 0.761 1.528 1.268 1.8 0.501 0.275 1.016 0.316 1.546 0.123v0c0.492-0.179 0.838-0.534 1.038-1.064 0.198-0.537 0.222-1.382 0.073-2.536v0c-0.207-1.647-0.149-2.938 0.176-3.871 0.321-0.925 0.97-1.565 1.948-1.922v0c0.681-0.248 1.365-0.276 2.05-0.082 0.681 0.202 1.312 0.598 1.891 1.187 0.573 0.592 1.03 1.355 1.371 2.289v0c0.347 0.953 0.538 1.809 0.571 2.568 0.025 0.756-0.053 1.453-0.235 2.091v0l-2.826 1.159-0.625-1.713 1.537-0.989c0.103-0.345 0.14-0.723 0.112-1.135-0.028-0.411-0.13-0.857-0.304-1.336v0c-0.26-0.713-0.638-1.229-1.134-1.55-0.491-0.328-0.99-0.401-1.494-0.216v0c-0.297 0.108-0.529 0.264-0.698 0.469-0.175 0.207-0.281 0.524-0.317 0.952-0.043 0.43-0.021 1.03 0.066 1.799v0c0.227 1.897 0.148 3.309-0.236 4.235-0.384 0.926-1.04 1.559-1.968 1.897v0c-1.066 0.389-2.099 0.322-3.097-0.201-1.007-0.527-1.819-1.635-2.435-3.326z" fill="#000000" data-fill-palette-color="primary"></path><path d="M7.86 120.795v0c-0.316-0.878-0.421-1.704-0.314-2.478 0.103-0.765 0.404-1.484 0.905-2.157v0l-1.817 0.397-0.761-2.114 17.535-6.314-0.383-2.165 1.583-0.57 1.618 4.493-7.564 2.724c0.753 0.207 1.4 0.567 1.941 1.079 0.544 0.518 0.967 1.197 1.269 2.038v0c0.401 1.112 0.44 2.172 0.118 3.18-0.318 1-0.944 1.907-1.879 2.722-0.943 0.811-2.138 1.477-3.585 1.998v0l-0.265 0.095c-1.295 0.467-2.505 0.666-3.629 0.6-1.126-0.073-2.101-0.403-2.926-0.991-0.834-0.592-1.449-1.438-1.846-2.537zM9.639 119.459v0c0.416 1.156 1.137 1.868 2.16 2.134 1.028 0.258 2.218 0.143 3.571-0.344v0l0.265-0.095c1.043-0.375 1.911-0.828 2.606-1.356 0.693-0.535 1.172-1.136 1.439-1.803 0.26-0.665 0.249-1.389-0.033-2.173v0c-0.273-0.758-0.686-1.331-1.239-1.717-0.553-0.386-1.192-0.624-1.916-0.712v0l-5.962 2.147c-0.514 0.535-0.86 1.131-1.038 1.787-0.175 0.663-0.127 1.373 0.147 2.132z" fill="#000000" data-fill-palette-color="primary"></path><path d="M90.276 177.799v0c-1.558 0.001-2.774-0.499-3.648-1.499-0.874-1-1.311-2.558-1.313-4.674v0l-0.004-6.407-1.652-0.362-0.001-1.692 1.652-0.001 2.61-0.002 0.005 8.493c0.001 1.531 0.227 2.582 0.677 3.153 0.45 0.577 1.156 0.866 2.116 0.865v0c0.927-0.001 1.692-0.189 2.296-0.565 0.604-0.376 1.061-0.911 1.37-1.603v0l-0.006-8.291-1.924-0.362-0.001-1.692 1.924-0.002 2.62-0.001 0.007 12.311 1.642 0.372 0.001 1.672-3.989 0.002-0.173-2.125c-0.456 0.773-1.04 1.367-1.752 1.784-0.712 0.417-1.531 0.626-2.457 0.626z" fill="#000000" data-fill-palette-color="primary"></path><path d="M173.692 119.173v0c-0.335 0.9-0.74 1.71-1.216 2.429-0.478 0.725-1.072 1.457-1.784 2.195v0l-3.202-1.159 0.689-1.85 2.098 0.254c0.362-0.396 0.668-0.794 0.918-1.196 0.25-0.402 0.468-0.854 0.655-1.358v0c0.37-0.995 0.444-1.78 0.222-2.357-0.218-0.569-0.611-0.958-1.178-1.169v0c-0.529-0.197-1.06-0.147-1.592 0.149-0.527 0.299-1.132 0.973-1.817 2.022v0c-0.976 1.486-1.921 2.496-2.836 3.03-0.909 0.536-1.886 0.61-2.931 0.221v0c-0.73-0.272-1.302-0.728-1.715-1.37-0.422-0.637-0.663-1.397-0.722-2.278-0.061-0.876 0.096-1.817 0.47-2.824v0c0.379-1.02 0.82-1.848 1.323-2.486 0.502-0.637 1.049-1.154 1.641-1.55v0l3.114 1.019-0.685 1.841-1.942-0.271c-0.322 0.21-0.613 0.492-0.873 0.847-0.269 0.358-0.499 0.792-0.689 1.302v0c-0.283 0.762-0.335 1.448-0.154 2.061 0.175 0.61 0.532 1.015 1.074 1.216v0c0.315 0.117 0.614 0.15 0.899 0.098 0.284-0.052 0.589-0.236 0.914-0.552 0.334-0.32 0.733-0.824 1.197-1.511v0c1.139-1.712 2.186-2.813 3.142-3.303 0.954-0.484 1.928-0.54 2.922-0.17v0c1.133 0.422 1.928 1.194 2.385 2.317 0.454 1.129 0.345 2.597-0.327 4.403z" fill="#000000" data-fill-palette-color="primary"></path><path d="M1.932 89.085c0-4.074 3.303-7.377 7.377-7.377 4.074 0 7.377 3.303 7.378 7.377 0 4.074-3.303 7.377-7.378 7.378-4.074 0-7.377-3.303-7.377-7.378z" fill="#000000" data-fill-palette-color="primary"></path><path d="M164.133 89.085c0-4.074 3.303-7.377 7.377-7.377 4.074 0 7.377 3.303 7.378 7.377 0 4.074-3.303 7.377-7.378 7.378-4.074 0-7.377-3.303-7.377-7.378z" fill="#000000" data-fill-palette-color="primary"></path></g><g id="text-1"></g></svg></g><g transform="matrix(1,0,0,1,34.167531600000004,191.58132)"><svg viewBox="0 0 110.55253680000001 60.403342570434795" height="60.403342570434795" width="110.55253680000001"><g transform="matrix(1,0,0,1,0,0)"><svg width="110.55253680000001" viewBox="1.15 -37.1 69 37.7" height="60.403342570434795" data-palette-color="#106a46"><path d="M11.15 0.6Q9.05 0.6 6.88 0.33 4.7 0.05 4.7 0L4.7 0 4.25-0.4 4.25-31.3Q4.25-34 2.4-34L2.4-34Q2-34 1.7-33.95 1.4-33.9 1.3-33.85L1.3-33.85 1.15-34 1.35-35.65Q3.5-35.95 5.8-36.45 8.1-36.95 8.75-37.1L8.75-37.1 9.05-36.45Q8.7-35.95 8.4-31.38 8.1-26.8 7.9-19.7L7.9-19.7Q10.15-21.3 11.78-22.25 13.4-23.2 13.95-23.2L13.95-23.2Q16.75-23.2 18.95-21.85 21.15-20.5 22.38-18.07 23.6-15.65 23.6-12.5L23.6-12.5Q23.6-8.9 21.93-5.9 20.25-2.9 17.4-1.15 14.55 0.6 11.15 0.6L11.15 0.6ZM12.55-2.15Q15.9-2.15 17.82-4.42 19.75-6.7 19.75-10.65L19.75-10.65Q19.75-13.15 18.88-15.25 18-17.35 16.48-18.57 14.95-19.8 13.15-19.8L13.15-19.8Q12.15-19.8 10.6-19.03 9.05-18.25 7.8-17.1L7.8-17.1 7.65-3.2Q8.55-2.75 9.95-2.45 11.35-2.15 12.55-2.15L12.55-2.15ZM29.9-17.35Q29.9-20.05 28.05-20.05L28.05-20.05Q27.7-20.05 27.3-19.98 26.9-19.9 26.8-19.85L26.8-19.85 27-21.7Q28.95-22 31.2-22.53 33.45-23.05 34.15-23.2L34.15-23.2 34.45-22.6Q33.95-21.3 33.55-16.7 33.15-12.1 33.15-7.75L33.15-7.75Q33.15-2.85 37.15-2.85L37.15-2.85Q38.65-2.85 39.95-3.58 41.25-4.3 43.2-5.7L43.2-5.7 43.2-17.3Q43.2-18.8 42.65-19.4 42.1-20 40.7-20L40.7-20 39.5-19.95 39.7-21.75Q41.9-22.05 44.3-22.55 46.7-23.05 47.4-23.2L47.4-23.2 47.7-22.6Q47.25-21.45 46.92-16.35 46.6-11.25 46.6-5.25L46.6-5.25Q46.6-4.15 47.15-3.55 47.7-2.95 48.65-2.95L48.65-2.95Q49.35-2.95 50.02-3.23 50.7-3.5 51.12-3.8 51.55-4.1 51.65-4.2L51.65-4.2 52.35-3.4Q52.15-3.1 51.42-2.15 50.7-1.2 49.72-0.3 48.75 0.6 48 0.6L48 0.6Q43.95 0.6 43.55-3.45L43.55-3.45 43.3-3.55Q40.9-1.7 38.97-0.55 37.05 0.6 36.35 0.6L36.35 0.6Q33.15 0.6 31.42-0.9 29.7-2.4 29.7-5.2L29.7-5.2 29.9-17.35ZM61 0.6Q59.4 0.6 58.07 0.38 56.75 0.15 56-0.1 55.25-0.35 55.05-0.45L55.05-0.45 54.9-0.8Q55.05-1.55 55.25-3.9 55.45-6.25 55.5-7.5L55.5-7.5 57.25-7.75Q57.25-4.45 58.35-3.1 59.45-1.75 62.1-1.75L62.1-1.75Q64-1.75 65.3-2.6 66.6-3.45 66.6-4.7L66.6-4.7Q66.6-5.95 65.42-6.98 64.25-8 60.8-9.85L60.8-9.85Q57.95-11.3 56.65-12.8 55.35-14.3 55.35-16.1L55.35-16.1Q55.35-18.1 56.55-19.73 57.75-21.35 59.85-22.28 61.95-23.2 64.55-23.2L64.55-23.2Q65.75-23.2 66.85-23.03 67.95-22.85 68.65-22.65 69.35-22.45 69.55-22.4L69.55-22.4 69.65-22.15Q69.55-21.65 69.2-19.88 68.85-18.1 68.7-16.05L68.7-16.05 66.85-15.9Q66.85-16.05 66.9-16.5 66.95-16.95 66.95-17.35L66.95-17.35Q66.95-19.15 65.97-19.98 65-20.8 62.85-20.8L62.85-20.8Q61.15-20.8 59.97-20 58.8-19.2 58.8-18.05L58.8-18.05Q58.8-16.85 59.82-15.8 60.85-14.75 63.15-13.55L63.15-13.55Q67.2-11.4 68.67-9.93 70.15-8.45 70.15-6.55L70.15-6.55Q70.15-4.65 68.9-3 67.65-1.35 65.52-0.38 63.4 0.6 61 0.6L61 0.6Z" opacity="1" transform="matrix(1,0,0,1,0,0)" fill="#000000" class="slogan-text-1" data-fill-palette-color="secondary" id="text-1"></path></svg></g></svg></g></svg></g></svg></g><g></g></svg></g></svg></g></svg></g><defs></defs></svg><rect width="320" height="360" fill="none" stroke="none" visibility="hidden"></rect></g></svg></g></svg>